<?xml version="1.0" standalone="no"?>
<!DOCTYPE svg PUBLIC "-//W3C//DTD SVG 20010904//EN"
 "http://www.w3.org/TR/2001/REC-SVG-20010904/DTD/svg10.dtd">
<svg version="1.0" xmlns="http://www.w3.org/2000/svg"
 width="512.000000pt" height="512.000000pt" viewBox="0 0 512.000000 512.000000"
 preserveAspectRatio="xMidYMid meet">
<metadata>
Created by potrace 1.11, written by Peter Selinger 2001-2013
</metadata>
<g transform="translate(0.000000,512.000000) scale(0.100000,-0.100000)"
fill="#000000" stroke="none">
<path d="M2379 5116 c-2 -2 -35 -6 -74 -10 -38 -3 -97 -10 -130 -16 -33 -6
-76 -13 -95 -16 -19 -3 -93 -20 -165 -39 -780 -199 -1432 -776 -1734 -1532
-40 -101 -96 -279 -107 -337 -3 -16 -7 -33 -9 -36 -3 -4 -7 -25 -10 -46 -4
-22 -8 -46 -10 -54 -7 -24 -24 -149 -32 -230 -10 -95 -9 -391 0 -490 38 -382
171 -774 371 -1095 45 -72 173 -253 200 -282 6 -6 47 -51 91 -100 118 -130
230 -229 420 -370 183 -136 562 -318 686 -330 65 -6 92 5 119 50 18 29 20 52
20 273 l0 240 -72 -13 c-75 -13 -260 -18 -313 -8 -129 24 -216 60 -301 125
-74 58 -115 111 -163 215 -103 220 -164 303 -281 385 -116 81 -139 125 -79
150 30 13 97 15 149 5 54 -10 167 -76 220 -128 66 -64 80 -81 114 -140 65
-110 172 -200 289 -243 51 -19 194 -26 262 -13 75 14 185 51 186 63 6 83 70
235 124 295 22 24 32 41 24 42 -8 0 -23 2 -34 4 -11 3 -38 6 -60 9 -108 13
-284 59 -390 101 -278 110 -468 300 -574 573 -26 64 -59 190 -67 251 -3 25
-10 69 -14 96 -13 83 -10 344 5 421 33 172 120 356 216 459 26 28 31 47 17 70
-3 6 -9 24 -12 40 -3 17 -9 41 -12 55 -12 57 -15 220 -6 285 15 94 19 112 43
189 26 88 39 92 179 70 19 -3 36 -6 37 -5 2 0 42 -13 90 -30 105 -37 194 -81
328 -162 l99 -60 46 12 c25 7 54 14 65 16 11 2 45 8 75 14 99 19 141 24 275
37 70 6 278 6 350 0 53 -5 177 -19 185 -21 3 0 28 -4 55 -9 28 -4 90 -16 138
-28 l88 -20 108 66 c232 141 428 208 577 198 16 -2 24 -15 38 -58 44 -141 49
-170 50 -314 1 -148 -2 -179 -28 -262 l-14 -47 54 -68 c58 -72 144 -237 164
-313 32 -121 40 -187 40 -315 -1 -191 -9 -269 -46 -423 -95 -389 -333 -635
-737 -756 -45 -14 -93 -27 -107 -30 -14 -3 -48 -9 -77 -15 -46 -9 -99 -18
-168 -27 -11 -1 -22 -3 -24 -3 -2 -1 13 -19 32 -41 51 -56 98 -154 123 -257 4
-15 9 -226 11 -468 2 -288 7 -450 15 -468 29 -74 105 -86 240 -37 182 67 529
257 643 352 11 10 49 40 85 68 194 153 416 406 555 630 101 165 216 412 262
565 17 58 73 273 77 298 22 136 25 156 33 232 10 91 10 409 1 505 -34 340
-133 662 -296 965 -50 93 -121 210 -149 245 -6 8 -38 51 -71 95 -184 246 -442
475 -727 647 -63 38 -299 158 -310 158 -4 0 -21 6 -38 14 -93 43 -368 123
-477 140 -19 3 -46 8 -60 11 -14 3 -45 8 -70 11 -25 3 -56 8 -70 10 -28 6
-456 15 -461 10z"/>
</g>
</svg>
